<svg width="302" height="124" viewBox="0 0 302 124" fill="none" xmlns="http://www.w3.org/2000/svg">
<path d="M143.771 80.9451L143.794 80.8816C143.836 80.7067 143.811 80.4889 143.66 80.1876C143.487 79.8405 143.173 79.435 142.718 78.9521C142.141 78.3414 141.4 77.6683 140.542 76.8888C140.03 76.4238 139.477 75.921 138.892 75.3709C134.709 71.4391 130.781 67.2052 126.866 62.9854C124.351 60.2747 121.841 57.5698 119.273 54.9546C117.112 52.7542 113.961 49.5151 110.171 45.4951H61.0187C58.9259 45.4951 57.5075 43.3682 58.2909 41.4284L143.771 80.9451ZM143.771 80.9451C143.724 81.0769 143.635 81.2091 143.35 81.3426C143.039 81.4883 142.529 81.6176 141.685 81.7164C140.003 81.9135 137.185 81.972 132.452 81.9527C119.117 81.8977 117.132 81.3329 115.336 80.5952C113.142 79.6933 109.629 77.8486 106.1 73.8403L105.93 73.648M143.771 80.9451L105.93 73.648M105.93 73.648L93.8187 57.9557C91.6859 55.192 88.3996 53.5726 84.9145 53.5726H60.9569C56.3696 53.5726 52.2428 56.3664 50.5175 60.6328L50.5172 60.6336L50.1797 61.4724M105.93 73.648L50.1797 61.4724M50.1797 61.4724C50.1793 61.4735 50.1788 61.4746 50.1784 61.4756M50.1797 61.4724L50.1784 61.4756M15.2265 37.9236L15.255 37.9427L14.8516 38.3718C10.591 42.9034 8.24521 49.2692 9.19286 56.1879L15.2265 37.9236ZM15.2265 37.9236L44.1256 5.61038H44.1393L44.2893 5.42879C47.0998 2.02616 51.5195 0.0205326 56.3809 0.598849L56.3811 0.598867C62.468 1.32108 67.4186 6.30042 68.1781 12.4182C68.5236 15.209 68.0013 17.8393 66.8831 20.1256L66.6916 20.5173L66.7276 20.5415L65.083 24.6105C63.7531 27.9001 66.1615 31.5012 69.7035 31.5012C73.0422 31.5012 76.2381 29.941 78.2968 27.2719L90.3042 11.7162L90.3204 11.738L90.7221 11.2034C92.3371 9.05497 94.9142 6.28947 98.739 4.18653C101.013 2.93629 102.881 2.38571 104.23 1.99804L104.23 1.99799C105.959 1.50031 107.976 0.921122 109.806 0.734029C111.666 0.543921 113.144 0.779622 113.975 1.69721L113.975 1.69742C114.282 2.03573 114.541 2.51486 114.677 3.03081C114.813 3.54781 114.816 4.06105 114.662 4.48212L114.661 4.48233C114.431 5.11307 113.903 5.4155 112.859 5.95486L112.839 5.96501C111.832 6.48523 110.511 7.16781 109.078 8.60501L109.078 8.60521L109.432 8.95807L109.078 8.60527L109.078 8.60534L109.078 8.60551L109.077 8.60597L109.076 8.60738L109.071 8.61213L109.054 8.62926C109.04 8.64405 109.019 8.66554 108.992 8.69354C108.939 8.74952 108.862 8.83152 108.765 8.93788C108.571 9.15054 108.297 9.46087 107.976 9.85555L107.975 9.85583C105.929 12.3678 103.678 17.096 103.14 21.9844C102.212 30.4096 106.013 36.9504 107.825 39.586C92.3203 39.5859 76.8135 39.5842 61.3085 39.5824L61.0188 39.5823C59.82 39.5823 58.7403 40.3112 58.2912 41.4274L15.2265 37.9236ZM50.1784 61.4756C46.7239 69.7344 38.2944 75.3718 28.6562 74.6017C18.7764 73.8102 10.5466 66.0538 9.19287 56.188L50.1784 61.4756Z" stroke="#5C574D"/>
<path d="M183.773 107.455C184.208 102.059 182.776 97.0988 180.221 93.4862C177.637 89.8333 173.927 87.5813 169.84 87.5813H79.6047H79.5091L79.4202 87.546C79.2815 87.4909 78.7818 87.2847 78.2638 86.8825C77.7468 86.481 77.1768 85.8566 76.9651 84.9598L76.965 84.9595C76.7342 83.9789 77.0424 83.1375 77.1773 82.8436M183.773 107.455L77.6317 83.0522M183.773 107.455L183.772 107.456L183.756 107.636C183.037 115.789 177.913 122.318 171.699 123.345C166.31 124.235 161.386 121.179 158.481 116.017L158.066 115.28L158.04 115.322M183.773 107.455L158.04 115.322M77.1773 82.8436L77.6317 83.0522M77.1773 82.8436C77.1772 82.8437 77.1772 82.8438 77.1771 82.8439L77.6317 83.0522M77.1773 82.8436C77.688 81.7291 78.9988 81.2206 80.5377 80.9665C82.1185 80.7056 84.1598 80.6797 86.4288 80.7191C88.5705 80.7565 90.4721 80.845 92.1489 80.9231C92.2456 80.9276 92.3414 80.932 92.4366 80.9365C94.1876 81.0177 95.6767 81.0827 96.9472 81.0614C99.5155 81.0185 101.011 80.6203 101.909 79.4939M77.6317 83.0522C78.4209 81.329 81.8795 81.1402 86.4201 81.219C88.5543 81.2563 90.4494 81.3445 92.1268 81.4226C97.5442 81.6747 100.692 81.8213 102.3 79.8057C102.493 79.5638 102.709 79.287 102.849 78.8507M101.909 79.4939C101.909 79.494 101.909 79.4941 101.909 79.4942L102.299 79.8051L101.909 79.4939ZM101.909 79.4939C102.096 79.2592 102.263 79.0422 102.373 78.6979M102.373 78.6979C102.373 78.6979 102.373 78.698 102.373 78.698L102.849 78.8507M102.373 78.6979C102.654 77.8222 102.285 76.9442 101.126 75.5338C100.625 74.9249 100.008 74.2508 99.2866 73.4634C99.1882 73.356 99.0879 73.2464 98.9857 73.1347C98.1383 72.2082 97.1715 71.14 96.1275 69.8816C95.1806 68.7404 94.4385 67.7648 93.8108 66.923C93.6669 66.73 93.5295 66.5449 93.3975 66.3669C92.9506 65.7643 92.5645 65.2438 92.189 64.7781C91.2343 63.5943 90.3805 62.8062 88.9005 62.1105L88.9004 62.1105C87.7862 61.5865 86.8271 61.3509 85.5081 61.0272C83.36 60.5009 81.7084 60.4512 79.7055 60.3909C78.8377 60.3648 77.9041 60.3367 76.8355 60.267C70.3933 59.848 68.173 59.8981 67.2729 59.925C62.534 60.071 60.2796 60.1759 58.1541 61.4052L58.154 61.4053C55.625 62.8671 54.2134 65.1205 53.4664 66.6409L53.4418 66.6909L53.4068 66.7343C51.6539 68.9072 49.9015 71.0805 48.149 73.2539L48.1462 73.2574L48.1362 73.2698C46.3861 75.4401 44.636 77.6106 42.8855 79.7805L42.8839 79.7825C42.8594 79.8126 42.8361 79.8409 42.8139 79.8679C42.7894 79.8976 42.7662 79.9259 42.7437 79.9536L42.5805 80.1666C39.1226 84.6801 37.1852 91.1319 37.9112 98.1622C38.9088 107.791 45.0227 115.412 52.4198 116.59L52.42 116.59C60.6508 117.902 67.9953 111.548 70.4894 102.148L70.6803 101.428L70.7186 101.457C71.9415 98.0114 74.6814 95.6644 77.8336 95.6644H96.1141C99.8935 95.6644 103.412 97.8889 105.673 101.598L105.673 101.598L114.039 115.323L114.065 115.28L114.479 116.017C117.368 121.152 122.257 124.205 127.613 123.36C133.703 122.397 138.789 116.152 139.696 108.202L139.696 108.202C140.082 104.822 139.717 101.607 138.798 98.7557L138.798 98.7551C138.572 98.0507 138.644 97.306 138.935 96.724C139.225 96.143 139.774 95.6644 140.509 95.6644H141.725C144.49 95.6644 147.05 97.2913 148.689 99.979L148.69 99.9791L158.04 115.322M102.373 78.6979L102.849 78.8507M102.849 78.8507C103.381 77.1933 102.011 75.6973 99.6554 73.1258C98.7389 72.1251 97.6732 70.9616 96.5123 69.5623C95.3606 68.1743 94.514 67.0328 93.8033 66.0747C92.1959 63.9075 91.2846 62.6787 89.1132 61.658C87.9525 61.1122 86.9506 60.8664 85.6441 60.5457L85.6273 60.5416L158.04 115.322M148.263 100.239C146.695 97.6693 144.282 96.1644 141.725 96.1644H140.509C139.523 96.1644 138.901 97.4402 139.274 98.6024L148.263 100.239Z" stroke="#5C574D"/>
<path d="M226.377 23.6531L226.348 23.9102C225.446 31.9835 218.997 38.5827 210.982 39.6287C204.017 40.5365 197.728 37.4068 194.059 32.2581L193.91 32.0483H193.876L181.746 16.3333L181.746 16.3331C179.612 13.5696 176.325 11.9501 172.84 11.9501H164.412C156.407 11.9501 150.96 20.0958 153.976 27.5338C153.976 27.5338 153.976 27.5338 153.976 27.5338L166.327 58.0016L166.291 58.0258L166.483 58.4172C167.603 60.7014 168.125 63.3315 167.778 66.124L167.778 66.1241C167.019 72.2418 162.068 77.2177 155.981 77.9417L156.037 78.4098L155.981 77.9417C151.121 78.5201 146.7 76.5144 143.891 73.1119L143.741 72.9302H143.727L114.827 40.6171L114.855 40.5978L114.451 40.1687C110.821 36.3104 108.585 31.1228 108.585 25.3992C108.585 13.6042 118.029 4.03937 129.729 3.88355L130.114 3.87841L130.117 3.86893H208.589C219.056 3.86893 227.428 12.9099 226.377 23.6531Z" stroke="#5C574D"/>
<path d="M178.182 83.7716L207.083 116.085H207.097L207.247 116.267C210.057 119.669 214.48 121.675 219.34 121.097C225.427 120.371 230.376 115.393 231.135 109.275L231.135 109.275C231.483 106.485 230.96 103.855 229.841 101.57L229.648 101.179L229.685 101.154L222.383 83.091L222.383 83.0908C221.055 79.8015 223.461 76.2022 227.004 76.2022H283.625C293.606 76.2022 301.679 67.9848 301.497 57.9131C301.313 48.0435 292.875 40.2909 283.013 40.2909H226.687C224.517 40.2909 222.588 41.8571 222.379 43.9558L222.379 43.9559C222.134 46.4067 224.044 48.4674 226.427 48.4674H226.465L226.503 48.4732C235.11 49.7939 243.373 52.8121 250.813 57.3598L178.182 83.7716ZM178.182 83.7716L178.21 83.7524L177.807 83.3236C173.546 78.7939 171.201 72.4263 172.15 65.5076C173.504 55.6435 181.734 47.8852 191.614 47.0937C201.25 46.3218 209.68 51.9595 213.136 60.2205L178.182 83.7716Z" stroke="#5C574D"/>
<path d="M266.005 98.3971C266.005 105.861 260.019 111.902 252.645 111.902C245.271 111.902 239.285 105.861 239.285 98.3971C239.285 90.9336 245.271 84.8922 252.645 84.8922C260.019 84.8922 266.005 90.9336 266.005 98.3971Z" stroke="#5C574D"/>
<path d="M27.2199 94.5164C27.2199 101.98 21.2336 108.021 13.86 108.021C6.48635 108.021 0.5 101.98 0.5 94.5164C0.5 87.0529 6.48635 81.0115 13.86 81.0115C21.2336 81.0115 27.2199 87.0529 27.2199 94.5164Z" stroke="#5C574D"/>
<path d="M159.708 25.73L159.708 25.7298C159.865 24.3241 160.984 23.0572 162.848 22.1923C164.701 21.3331 167.206 20.9189 169.917 21.1839C172.628 21.4489 174.984 22.3385 176.602 23.5353C178.23 24.739 179.039 26.1888 178.882 27.591C178.725 28.9967 177.607 30.2636 175.742 31.1284C173.889 31.9877 171.385 32.4018 168.674 32.1368C165.963 31.8718 163.607 30.9823 161.988 29.7854C160.36 28.5816 159.551 27.1319 159.708 25.73Z" stroke="#5C574D"/>
</svg>
