<svg width="310" height="130" viewBox="0 0 310 130" fill="none" xmlns="http://www.w3.org/2000/svg">
<path d="M148.407 84.1127C148.01 85.2218 146.05 85.4912 136.52 85.4527C123.094 85.3977 120.993 84.8386 119.076 84.0577C116.81 83.1338 113.199 81.2494 109.579 77.1708C109.579 77.1726 109.568 77.1854 109.568 77.1854L97.1776 61.2612C95.1227 58.6197 91.9569 57.0726 88.6005 57.0726H64.4493C60.0315 57.0726 56.0555 59.7416 54.3929 63.8203L54.0501 64.6653C50.4884 73.1159 41.7922 78.8884 31.8476 78.1001C21.6518 77.2899 13.1646 69.3544 11.7677 59.2558C10.7907 52.18 13.2104 45.6652 17.6043 41.0293L17.5878 41.0183L47.2566 8.11038H47.2585C50.1951 4.58349 54.8164 2.50292 59.8959 3.10235C66.2659 3.85209 71.4353 9.01411 72.229 15.3566C72.5901 18.2493 72.0439 20.9769 70.8762 23.3453L70.8872 23.3526L69.0761 27.7979C67.8681 30.7621 70.0568 34.0012 73.2666 34.0012C76.4763 34.0012 79.5504 32.5127 81.5302 29.9665L94.0411 13.8883C94.0411 13.8883 94.0521 13.9012 94.0521 13.903C95.7092 11.7161 98.3581 8.89495 102.294 6.74839C104.636 5.47071 106.563 4.90795 107.932 4.5175C111.399 3.52762 116.246 2.14364 118.269 4.36169C119.004 5.16642 119.461 6.57057 119.061 7.65394C118.438 9.34589 116.108 9.18092 113.316 11.9581C113.316 11.9581 112.874 12.398 112.238 13.1716C110.237 15.6096 108.006 20.2474 107.474 25.0391C106.444 34.3164 111.32 41.2749 112.676 43.086C96.6221 43.086 80.566 43.0842 64.5116 43.0823C63.5089 43.0823 62.6052 43.6873 62.2294 44.6148C61.5713 46.2298 62.7629 47.9951 64.5116 47.9951H114.279C118.163 52.0847 121.391 55.377 123.596 57.6042C130.258 64.3335 136.435 71.5504 143.359 78.0066C146.455 80.8938 148.921 82.6902 148.411 84.1127H148.407Z" stroke="#5C574D" stroke-width="5" stroke-miterlimit="10"/>
<path d="M188.743 110.68C188.004 118.98 182.73 125.763 176.168 126.839C170.471 127.772 165.323 124.553 162.322 119.262L162.313 119.277L152.46 103.239C150.88 100.669 148.448 99.1643 145.87 99.1643H144.644C143.65 99.1643 143.024 100.44 143.399 101.602C144.347 104.521 144.723 107.807 144.325 111.259C143.394 119.354 138.155 125.845 131.722 126.853C126.06 127.741 120.949 124.525 117.965 119.262L117.956 119.277L109.096 104.858C106.889 101.267 103.491 99.1643 99.8906 99.1643H81.4624C78.3681 99.1643 75.6074 101.61 74.5534 105.281L74.5461 105.276C71.9925 114.823 64.409 121.451 55.7641 120.084C48.0119 118.859 41.7372 110.99 40.7161 101.214C39.9719 94.0647 41.9553 87.4838 45.5244 82.8625L45.5207 82.8589L45.5885 82.7764C45.6692 82.6701 45.7553 82.5693 45.8396 82.4666C49.3757 78.1185 52.9099 73.7685 56.446 69.4204C57.2196 67.8586 58.6989 65.5049 61.3715 63.9724C63.6464 62.6672 66.0624 62.5701 70.801 62.4253C71.7286 62.3978 73.9833 62.3483 80.489 62.7681C83.9737 62.9935 86.1588 62.7736 89.319 63.5416C90.6444 63.8642 91.6581 64.1099 92.8331 64.658C95.9897 66.13 96.5048 68.0346 100.292 72.5623C104.47 77.5575 107.425 79.5483 106.68 81.8507C106.539 82.287 106.321 82.5637 106.127 82.8057C104.004 85.4454 99.2178 84.3767 90.1183 84.219C85.541 84.1402 82.0544 84.329 81.2589 86.0521C81.1452 86.2978 80.8813 87.0182 81.0774 87.8449C81.433 89.3389 83.0058 89.986 83.2478 90.0813H174.212C182.848 90.0813 189.735 99.5254 188.745 110.678L188.743 110.68Z" stroke="#5C574D" stroke-width="5" stroke-miterlimit="10"/>
<path d="M231.678 26.9657C230.743 35.266 224.063 42.0485 215.752 43.1245C208.535 44.0576 202.016 40.8386 198.216 35.5483C198.215 35.5483 198.205 35.563 198.205 35.563L185.815 19.6388C183.759 16.9973 180.593 15.4501 177.237 15.4501H168.74C161.032 15.4501 155.78 23.2335 158.687 30.3459L171.292 61.1897L171.281 61.1971C172.45 63.5636 172.997 66.2913 172.634 69.1857C171.84 75.5283 166.671 80.6867 160.301 81.4382C155.223 82.0377 150.6 79.9571 147.665 76.4302H147.663L117.992 43.5223L118.009 43.5113C114.266 39.5646 111.958 34.256 111.958 28.3992C111.958 16.3319 121.699 6.54308 133.77 6.3836L133.774 6.36893H213.274C224.21 6.36893 232.934 15.8131 231.68 26.9657H231.678Z" stroke="#5C574D" stroke-width="5" stroke-miterlimit="10"/>
<path d="M307.436 60.9001C307.627 71.2517 299.263 79.7023 288.917 79.7023H231.837C228.628 79.7023 226.441 82.9395 227.647 85.9037L235.161 104.343L235.15 104.35C236.319 106.717 236.866 109.444 236.503 112.337C235.709 118.68 230.541 123.84 224.171 124.593C219.094 125.193 214.469 123.112 211.532 119.585H211.53L181.86 86.6772L181.876 86.6662C177.482 82.0321 175.062 75.5155 176.041 68.4397C177.438 58.3429 185.925 50.4056 196.121 49.5954C206.064 48.8053 214.76 54.5777 218.324 63.0302L218.668 63.8752C220.331 67.9557 224.307 70.6229 228.725 70.6229H255.668C260.241 70.6229 261.924 64.6323 258.018 62.2658L255.576 60.7865C248.134 56.2734 239.866 53.2781 231.256 51.9674C228.556 51.9674 226.397 49.6522 226.674 46.9062C226.914 44.5177 229.108 42.7909 231.518 42.7909H288.299C298.496 42.7909 307.246 50.7429 307.436 60.9038V60.9001Z" stroke="#5C574D" stroke-width="5" stroke-miterlimit="10"/>
<path d="M257.686 115.402C265.402 115.402 271.658 109.132 271.658 101.397C271.658 93.6624 265.402 87.3921 257.686 87.3921C249.97 87.3921 243.714 93.6624 243.714 101.397C243.714 109.132 249.97 115.402 257.686 115.402Z" stroke="#5C574D" stroke-width="5" stroke-miterlimit="10"/>
<path d="M16.9719 111.521C24.6884 111.521 30.9438 105.251 30.9438 97.5164C30.9438 89.7817 24.6884 83.5115 16.9719 83.5115C9.25544 83.5115 3 89.7817 3 97.5164C3 105.251 9.25544 111.521 16.9719 111.521Z" stroke="#5C574D" stroke-width="5" stroke-miterlimit="10"/>
<path d="M183.828 30.6466C183.456 33.9462 178.602 36.1789 172.987 35.6344C167.374 35.09 163.123 31.9737 163.497 28.6742C163.87 25.3746 168.724 23.1418 174.338 23.6863C179.953 24.2307 184.201 27.347 183.828 30.6466Z" stroke="#5C574D" stroke-width="5" stroke-miterlimit="10"/>
</svg>
